# xmcd CD database file
#
# Track frame offsets:
#	182
#	20485
#	35107
#	46140
#	64300
#	78942
#	100632
#	115227
#	129452
#	144997
#	162737
#	175270
#
# Disc length: 2506 seconds
#
# Revision: 0
# Processed by: cddbd v1.5PL3 Copyright (c) Steve Scherf et al.
# Submitted via: CDex 1.51
#
DISCID=a009c80c
DTITLE=Stan Coster - The Song Maker
DYEAR=1900
DGENRE=Country
TTITLE0=The Old Gidgee Tree
TTITLE1=The New Australian Bushman
TTITLE2=Song of the Cobb and Co. Twitch
TTITLE3=Ken McKinnon's Wild Ride
TTITLE4=The Back to Bourke Weekend
TTITLE5=I'll Just be a Drifter Until I Die
TTITLE6=Can Never Do Wrong (in a Mother's Eye)
TTITLE7=Song of the Murray River
TTITLE8=My Father is a Drunkard
TTITLE9=The Last of the Breed
TTITLE10=A Bush Rodeo
TTITLE11=The Wobble Boot Hotel
EXTD=
EXTT0=
EXTT1=
EXTT2=
EXTT3=
EXTT4=
EXTT5=
EXTT6=
EXTT7=
EXTT8=
EXTT9=
EXTT10=
EXTT11=
PLAYORDER=
